<svg id="Слой_1" data-name="Слой 1" xmlns="http://www.w3.org/2000/svg" xmlns:xlink="http://www.w3.org/1999/xlink" viewBox="0 0 7.95 14.48"><defs><style>.cls-1{fill:#fd7601;}.cls-2{fill:url(#linear-gradient);}.cls-3{fill:url(#linear-gradient-2);}.cls-4{fill:url(#linear-gradient-3);}.cls-5{fill:url(#linear-gradient-4);}.cls-6{fill:url(#linear-gradient-5);}.cls-7{fill:url(#linear-gradient-6);}</style><linearGradient id="linear-gradient" x1="4.93" y1="10.46" x2="10.16" y2="10.46" gradientUnits="userSpaceOnUse"><stop offset="0" stop-color="#b31329"/><stop offset="0.36" stop-color="#fa273b"/><stop offset="0.45" stop-color="#fb4a2d"/><stop offset="0.56" stop-color="#fd711d"/><stop offset="0.67" stop-color="#fe8f10"/><stop offset="0.77" stop-color="#fea507"/><stop offset="0.88" stop-color="#ffb302"/><stop offset="0.97" stop-color="#ffb700"/></linearGradient><linearGradient id="linear-gradient-2" x1="6.2" y1="7.06" x2="12" y2="7.06" xlink:href="#linear-gradient"/><linearGradient id="linear-gradient-3" x1="4.05" y1="10.48" x2="10.58" y2="10.48" xlink:href="#linear-gradient"/><linearGradient id="linear-gradient-4" x1="7.4" y1="10.42" x2="10.05" y2="10.42" xlink:href="#linear-gradient"/><linearGradient id="linear-gradient-5" x1="4.05" y1="10.54" x2="8.54" y2="10.54" xlink:href="#linear-gradient"/><linearGradient id="linear-gradient-6" x1="6.2" y1="5.53" x2="11.41" y2="5.53" xlink:href="#linear-gradient"/></defs><title>favikon</title><path id="_Контур_" data-name="&lt;Контур&gt;" class="cls-1" d="M11.85,9.73A7.92,7.92,0,0,0,9.9,5.27C9.3,4.6,8.6,4,8,3.35a3,3,0,0,1-.89-2.14L6.87,3,8.4,6.21l2,2,1.44,1.65" transform="translate(-4.05 -0.52)"/><path id="_Контур_2" data-name="&lt;Контур&gt;" class="cls-2" d="M5.46,6.56a4.45,4.45,0,0,1,1,2.75,5,5,0,0,0,.85,2.79,2.77,2.77,0,0,0,2.9.77,4.54,4.54,0,0,1-.67,1,1.6,1.6,0,0,1-1.06.51,1.79,1.79,0,0,1-.68-.13A4.21,4.21,0,0,1,5,11.16a8,8,0,0,1,.52-3.88" transform="translate(-4.05 -0.52)"/><path id="_Контур_3" data-name="&lt;Контур&gt;" class="cls-3" d="M11.16,13.59a3.75,3.75,0,0,0-.08-3.66A11.46,11.46,0,0,0,8.58,8.2a5.54,5.54,0,0,1-2.3-3.56,5.48,5.48,0,0,1,1-4.12A5,5,0,0,0,8.36,4.88c.78.94,1.89,1.58,2.69,2.51,1.35,1.59,1.14,4.38.11,6.2" transform="translate(-4.05 -0.52)"/><path id="_Контур_4" data-name="&lt;Контур&gt;" class="cls-4" d="M4.88,6a2.52,2.52,0,0,1,1,1.45c.26,1.11-.27,2.27-.11,3.39a3.25,3.25,0,0,0,.78,1.69,2.84,2.84,0,0,0,2,.76,2.85,2.85,0,0,0,2.05-.79A2.93,2.93,0,0,1,9.1,14.6a3.41,3.41,0,0,1-2.67.23,3.49,3.49,0,0,1-2-1.72,4.25,4.25,0,0,1-.35-2.39,8.13,8.13,0,0,1,.7-2.36A4.48,4.48,0,0,0,5.22,7.1,1.09,1.09,0,0,0,4.88,6" transform="translate(-4.05 -0.52)"/><path id="_Контур_5" data-name="&lt;Контур&gt;" class="cls-1" d="M7.4,9.05A3.24,3.24,0,0,1,9.61,10,1.7,1.7,0,0,1,10.05,11a.85.85,0,0,1-.54.71.89.89,0,0,1-.9-.16,1.42,1.42,0,0,1-.36-.86,2.91,2.91,0,0,0-.19-.93A1.07,1.07,0,0,0,7.4,9.05Z" transform="translate(-4.05 -0.52)"/><path class="cls-5" d="M8.06,9.78a2.91,2.91,0,0,1,.19.93,1.42,1.42,0,0,0,.36.86.89.89,0,0,0,.9.16.85.85,0,0,0,.54-.71.65.65,0,0,0,0-.24.64.64,0,0,1-.6.63c-.7,0-.88-.35-1-1.29a1.25,1.25,0,0,0-1-1.07A1.07,1.07,0,0,1,8.06,9.78Z" transform="translate(-4.05 -0.52)"/><path class="cls-6" d="M8.54,14.84c-4.83.4-3.4-6.56-3.16-7.46a1.22,1.22,0,0,0-.26-1.22L5,6.07H5a1.23,1.23,0,0,1,.22,1,4.48,4.48,0,0,1-.43,1.26,8.13,8.13,0,0,0-.7,2.36,4.25,4.25,0,0,0,.35,2.39,3.49,3.49,0,0,0,2,1.72A3.46,3.46,0,0,0,8.54,14.84Z" transform="translate(-4.05 -0.52)"/><path class="cls-7" d="M6.28,4.64A5.54,5.54,0,0,0,8.58,8.2a11.46,11.46,0,0,1,2.5,1.73,2,2,0,0,1,.33.61h0c-.5-2.31-2.43-2.08-4-4.78A5.59,5.59,0,0,1,7.24.52,5.48,5.48,0,0,0,6.28,4.64Z" transform="translate(-4.05 -0.52)"/></svg>