<svg xmlns="http://www.w3.org/2000/svg" viewBox="0 0 172.5 189.7"><title>logo svg</title><g id="Слой_2" data-name="Слой 2"><g id="图层_1" data-name="图层 1"><g id="logo"><path d="M119.9.2v13h0c-.1,0-.1,0-.2-.1A127.09,127.09,0,0,0,84.2,7.9c-12,0-22.6,1.8-31.7,5.5V56.7h0V106c1.9.8,3.9,1.5,5.8,2.2,5.1,1.7,11.2,3.5,18.5,5.4q4.35,1.05,7.8,2.1c2.7.8,4.9,1.5,6.3,2h0c2.5.9,4.6,1.7,6.1,2.4,3.9,1.9,5.9,4.2,5.9,7.1q0,9-14.4,9a92.06,92.06,0,0,1-36-7.6h0V106a96.64,96.64,0,0,1-9.8-4.7A50.32,50.32,0,0,1,30,92a37.49,37.49,0,0,1-7.8-12.6,43.66,43.66,0,0,1-3.1-17q0-25.8,18-40.2a60.16,60.16,0,0,1,15.4-8.9V0H0V189.7H52.5v-17h0a134.36,134.36,0,0,0,35.7,4.6c12.1,0,22.7-1.7,31.8-5v17.4h52.5V.2Zm16.7,162.9a58.71,58.71,0,0,1-16.7,9.2s0-80,.1-93.4c-1.6-.6-3.1-1.3-4.7-1.8-4.5-1.6-10.5-3.7-17.9-5.6h0c-.2-.1-.4-.1-.5-.2-9.9-2.9-16.8-5.2-20.6-7.1s-5.8-4.2-5.8-7.1a6.6,6.6,0,0,1,3.4-6c2.2-1.4,5.5-2.1,9.8-2.1,6.5,0,14,1.3,22.6,3.9a140.77,140.77,0,0,1,13.7,5h0c.1,4.6.1,12.3.1,20.9A119.13,119.13,0,0,1,131,84a50.32,50.32,0,0,1,12.7,9.3,38.11,38.11,0,0,1,7.8,12.3,41.49,41.49,0,0,1,3.1,16.5C154.5,140,148.5,153.6,136.6,163.1Z"/></g></g></g></svg>