<svg xmlns="http://www.w3.org/2000/svg" viewBox="0 0 130.56 143.57"><defs><style>.cls-1{fill:#fff;}</style></defs><title>logo white</title><g id="Слой_2" data-name="Слой 2"><g id="图层_1" data-name="图层 1"><g id="logo"><path class="cls-1" d="M90.81,0V9.85h0l-.17-.06a95.21,95.21,0,0,0-26.88-3.9,64.21,64.21,0,0,0-24,4.18V42.82h0V80.15c1.46.61,2.91,1.18,4.35,1.66q5.77,1.93,14,4.1,3.24.84,5.91,1.61c2,.59,3.69,1.13,4.76,1.49h0a43.62,43.62,0,0,1,4.66,1.82q4.44,2.1,4.44,5.34Q77.87,103,67,103a70.21,70.21,0,0,1-27.23-5.72h0V80.15a78.71,78.71,0,0,1-7.42-3.52,38.48,38.48,0,0,1-9.61-7,29.82,29.82,0,0,1-5.94-9.5,33.7,33.7,0,0,1-2.33-12.85q0-19.56,13.66-30.46a45.91,45.91,0,0,1,11.64-6.73V0H0V143.57H39.75V130.69h0a102.06,102.06,0,0,0,27,3.49,69.45,69.45,0,0,0,24-3.81v13.2h39.75V0Zm12.61,123.37a45.15,45.15,0,0,1-12.61,7s0-60.55,0-70.72c-1.19-.5-2.37-1-3.55-1.38a136.72,136.72,0,0,0-13.58-4.2h0L73.32,54Q62.1,50.71,57.71,48.61t-4.39-5.35a5.08,5.08,0,0,1,2.56-4.53q2.55-1.62,7.44-1.62a59.9,59.9,0,0,1,17.1,3,101.33,101.33,0,0,1,10.39,3.78h0c.08,3.48.08,9.28,0,15.79a84.65,84.65,0,0,1,8.22,3.91,38.3,38.3,0,0,1,9.61,7,30.35,30.35,0,0,1,6,9.34A32.07,32.07,0,0,1,117,92.39Q117,112.57,103.42,123.37Z"/></g></g></g></svg>